Coordinates
version=1
nRows=24
nColumns=24
inDegrees=yes

Units are S.I. units (second, meters, Newtons, ...)
Angles are in degrees.

endheader
time	pelvis_tilt	pelvis_list	pelvis_rotation	pelvis_tx	pelvis_ty	pelvis_tz	hip_flexion_r	hip_adduction_r	hip_rotation_r	knee_angle_r	ankle_angle_r	subtalar_angle_r	mtp_angle_r	hip_flexion_l	hip_adduction_l	hip_rotation_l	knee_angle_l	ankle_angle_l	subtalar_angle_l	mtp_angle_l	lumbar_extension	lumbar_bending	lumbar_rotation
      0.57500000	    -12.86402069	     -0.56261372	     -2.17834885	     -0.77751247	      0.96112557	      0.34444321	     36.02055844	      6.11288507	     -2.84331770	     -1.09746152	     -4.40319836	      7.14711385	    -45.53296642	     -7.17894773	      5.88935094	      0.37614363	      2.44282475	    -15.04551815	    -12.97319789	     -7.07255734	     26.96892089	      0.15418933	     -1.60754383
      0.57916667	    -12.90301354	     -0.54831851	     -2.16595343	     -0.77202898	      0.96058029	      0.34444741	     35.97411088	      6.20585617	     -2.82918867	     -1.24743702	     -4.40760356	      7.10958826	    -45.53301356	     -7.30748859	      5.90920432	      0.38904561	      2.13715558	    -15.09973044	    -12.97515987	     -7.07667966	     27.03308344	      0.18200048	     -1.55432951
      0.58333333	    -12.94109928	     -0.54813084	     -2.14485118	     -0.76644439	      0.96007899	      0.34444228	     35.91721781	      6.30397589	     -2.80248985	     -1.44321565	     -4.39528774	      7.05049194	    -45.53229439	     -7.42036230	      5.90947983	      0.37576909	      1.78970340	    -15.15363288	    -12.96319243	     -7.08040841	     27.10425395	      0.21662124	     -1.49876890
      0.58750000	    -12.97546190	     -0.54760359	     -2.12621089	     -0.76081312	      0.95961129	      0.34442762	     35.85803246	      6.39952496	     -2.74488794	     -1.68998033	     -4.38743475	      6.98225762	    -45.53124396	     -7.52194474	      5.90656469	      0.35846850	      1.41567439	    -15.21243575	    -12.92191681	     -7.08305616	     27.17127693	      0.25751611	     -1.44793886
      0.59166667	    -13.08419763	     -0.55234354	     -2.11882335	     -0.75511419	      0.95903389	      0.34463178	     35.86018788	      6.53293154	     -2.50844822	     -1.97891572	     -4.26908319	      6.67851581	    -45.52551977	     -7.49768153	      5.86467570	      0.10191673	      0.95327935	    -15.24791443	    -12.64303623	     -7.08792243	     27.24006287	      0.30919913	     -1.22469264
      0.59583333	    -13.08429987	     -0.54587247	     -2.12454297	     -0.74940580	      0.95866880	      0.34459526	     35.76940294	      6.61802412	     -2.40846614	     -2.29419800	     -4.35482995	      6.67831398	    -45.52613089	     -7.62106193	      5.87244557	      0.14829454	      0.55105718	    -15.31845894	    -12.57970454	     -7.08736267	     27.33621731	      0.34198214	     -1.20810790
      0.60000000	    -13.20029729	     -0.49527612	     -2.22963449	     -0.74370127	      0.95806710	      0.34510822	     35.79288160	      6.77075932	     -1.91243294	     -2.59730448	     -4.61657908	      6.32415330	    -45.52317871	     -7.56223103	      5.87622122	     -0.22345745	      0.05094063	    -15.31656587	    -11.92211321	     -7.06874450	     27.49340437	      0.32229471	     -0.95834194
      0.60416667	    -13.19569751	     -0.51577987	     -2.18486134	     -0.73790399	      0.95782498	      0.34494806	     35.66867449	      6.83600319	     -1.80741668	     -2.91137272	     -4.70505925	      6.32347024	    -45.52321412	     -7.63505010	      5.84359494	     -0.19357003	     -0.45492234	    -15.40296985	    -11.88194457	     -7.06627845	     27.55672798	      0.39415041	     -0.95591330
      0.60833333	    -13.25248972	     -0.50660525	     -2.23198857	     -0.73210635	      0.95744966	      0.34523955	     35.61177387	      6.96394449	     -1.46446613	     -3.19119931	     -5.13483261	      6.08288191	    -45.51975109	     -7.59242697	      5.80115507	     -0.52443832	     -1.02964356	    -15.50114950	    -11.30696674	     -7.02801734	     27.60965452	      0.41072862	     -0.86377601
      0.61250000	    -13.23687896	     -0.53352424	     -2.18573041	     -0.72623950	      0.95731431	      0.34504570	     35.46023647	      7.01872458	     -1.32731275	     -3.50913720	     -5.24896311	      6.09164406	    -45.51957854	     -7.63044250	      5.75414101	     -0.49977842	     -1.61766913	    -15.60752344	    -11.24887137	     -7.02310873	     27.68213842	      0.49441428	     -0.86919772
      0.61666667	    -13.30831090	     -0.52312586	     -2.23955109	     -0.72036689	      0.95700357	      0.34533969	     35.40691252	      7.13407275	     -0.97790262	     -3.74854028	     -5.88344435	      5.92162293	    -45.51633070	     -7.52119337	      5.69902487	     -0.88252505	     -2.26144082	    -15.79048678	    -10.56985740	     -6.96979246	     27.74937492	      0.49407470	     -0.83657677
      0.62083333	    -13.28050135	     -0.55409371	     -2.19196632	     -0.71446286	      0.95698623	      0.34512571	     35.23001769	      7.17407655	     -0.82201848	     -4.04782842	     -6.02870031	      5.92956175	    -45.51568825	     -7.51667185	      5.63643553	     -0.88355263	     -2.94274163	    -15.91461267	    -10.48328258	     -6.96144451	     27.82035966	      0.59528502	     -0.84575259
      0.62500000	    -13.35759524	     -0.62746161	     -2.24977249	     -0.70828482	      0.95678362	      0.34569794	     35.10192015	      7.39833601	     -0.34240255	     -4.15325234	     -6.90748875	      5.38239076	    -45.48937783	     -7.36456481	      5.42694415	     -1.45836219	     -3.69113262	    -16.01012310	     -9.42179379	     -6.82063543	     27.98430878	      0.65688613	     -0.81170693
      0.62916667	    -13.34577752	     -0.62201831	     -2.27768865	     -0.70240952	      0.95678141	      0.34570196	     34.97165404	      7.44450528	     -0.17943152	     -4.44346941	     -7.40134758	      5.47496288	    -45.47640898	     -7.26615048	      5.37945233	     -1.70549653	     -4.46465879	    -16.26101658	     -8.98961139	     -6.75351563	     27.92432354	      0.70043746	     -0.80709329
      0.63333333	    -13.35471159	     -0.66931057	     -2.29809497	     -0.69632364	      0.95680596	      0.34581002	     34.81823947	      7.54534967	      0.01502519	     -4.65596861	     -8.02984284	      5.42431372	    -45.45809652	     -7.12855188	      5.24098924	     -2.05538290	     -5.27739871	    -16.55428090	     -8.38088127	     -6.66210326	     28.00037132	      0.79029061	     -0.81595521
      0.63750000	    -13.35769421	     -0.71433518	     -2.31870593	     -0.69023169	      0.95688504	      0.34595825	     34.65965414	      7.64206783	      0.22155813	     -4.87579973	     -8.64493612	      5.32500540	    -45.43397340	     -6.96288244	      5.08934438	     -2.41861150	     -6.14679841	    -16.84896024	     -7.74257816	     -6.55553189	     28.05037884	      0.86411209	     -0.82265536
      0.64166667	    -13.33725503	     -0.81116188	     -2.33853029	     -0.68396399	      0.95706903	      0.34626829	     34.42369244	      7.80564186	      0.58664601	     -5.02053512	     -9.32855118	      4.94736998	    -45.36626227	     -6.81665890	      4.84427213	     -2.79749002	     -7.04510678	    -17.09867635	     -6.92180863	     -6.31881321	     28.13939542	      1.00690873	     -0.82924050
      0.64583333	    -13.29424841	     -0.84841034	     -2.36350773	     -0.67788858	      0.95730771	      0.34627395	     34.25522783	      7.85854577	      0.59855803	     -5.33368096	     -9.79684512	      5.10480737	    -45.33918267	     -6.63063489	      4.70348788	     -3.18365297	     -8.00967808	    -17.50270784	     -6.42050703	     -6.21770017	     28.08640441	      1.07279996	     -0.83550529
      0.65000000	    -13.27368002	     -0.91200591	     -2.39140843	     -0.67169766	      0.95754807	      0.34640260	     34.08361829	      7.95015807	      0.70716343	     -5.60105264	    -10.35639049	      5.12550700	    -45.30565050	     -6.39819025	      4.50068665	     -3.59706823	     -9.00732968	    -17.98400052	     -5.74096573	     -6.09065663	     28.12930724	      1.17931221	     -0.85215467
      0.65416667	    -13.23816847	     -0.98426530	     -2.42088459	     -0.66548276	      0.95785815	      0.34658008	     33.89584355	      8.04890385	      0.81541120	     -5.88562344	    -10.86900020	      5.09948320	    -45.26741865	     -6.15323637	      4.27071404	     -4.01752046	    -10.05550489	    -18.47738851	     -5.06055503	     -5.95148438	     28.14922345	      1.28759395	     -0.86502765
      0.65833333	    -13.17391635	     -1.07372103	     -2.45033495	     -0.65923082	      0.95825322	      0.34677632	     33.67389099	      8.16020680	      0.90871403	     -6.17940908	    -11.34490046	      5.07194553	    -45.22345304	     -5.91043744	      4.00755744	     -4.44047955	    -11.14604685	    -19.01323529	     -4.36254365	     -5.79606783	     28.14245781	      1.41454324	     -0.87809966
      0.66250000	    -13.10775013	     -1.19018610	     -2.47011955	     -0.65291535	      0.95870083	      0.34708490	     33.41411881	      8.30276486	      1.14530752	     -6.42026960	    -11.84140173	      4.91313961	    -45.14155045	     -5.64765325	      3.68100652	     -4.82878871	    -12.26750682	    -19.61958673	     -3.54934836	     -5.52001684	     28.15202973	      1.59044906	     -0.88781232
      0.66666667	    -13.02732428	     -1.29517532	     -2.43244292	     -0.64673622	      0.95922849	      0.34704835	     33.18595936	      8.35947047	      1.09291613	     -6.77200373	    -12.05114519	      5.08096770	    -45.12389458	     -5.32494058	      3.39162348	     -5.18297675	    -13.53444979	    -20.06352345	     -3.22108300	     -5.45900362	     28.02883478	      1.71667278	     -0.89382175
      0.67083333	    -12.93269104	     -1.40387832	     -2.51842403	     -0.64043215	      0.95973742	      0.34745549	     32.93069599	      8.51659440	      1.16723903	     -7.09700133	    -12.47794377	      5.07621517	    -45.05352122	     -5.04310044	      3.05846729	     -5.61842837	    -14.66992828	    -21.01400757	     -2.33319715	     -5.21337348	     28.05719640	      1.88277703	     -0.90609047
